<svg width="24" height="24" viewBox="0 0 24 24" fill="none" xmlns="http://www.w3.org/2000/svg">
<g opacity="0.830497">
<path d="M17.517 6.28564L12.2856 11.5164L7.05419 6.28564L6.28613 7.05487L11.5164 12.2856L6.28613 17.5175L7.05419 18.2856L12.2856 13.0549L17.517 18.2856L18.2861 17.5175L13.0547 12.2856L18.2861 7.05487L17.517 6.28564Z" fill="black"/>
<path fill-rule="evenodd" clip-rule="evenodd" d="M0 12C0 5.38284 5.38284 0 12 0C18.6172 0 24 5.38284 24 12C24 18.6172 18.6172 24 12 24C5.38284 24 0 18.6172 0 12ZM0.856875 12C0.856875 18.1434 5.85495 23.1426 11.9995 23.1426C18.1429 23.1426 23.1422 18.1434 23.1422 12C23.1422 5.85542 18.1429 0.857344 11.9995 0.857344C5.85495 0.857344 0.856875 5.85542 0.856875 12Z" fill="black"/>
</g>
</svg>
